<svg xmlns="http://www.w3.org/2000/svg" width="1920" height="1664" viewBox="0 0 1920 1664" version="1.1"><path d="M 1747.835 139.786 C 1748.570 140.302, 1749.132 141.011, 1749.085 141.362 C 1748.808 143.436, 1749.202 144, 1750.929 144 C 1751.989 144, 1753.532 144.675, 1754.356 145.499 C 1756.145 147.288, 1760.130 147.915, 1760.644 146.488 C 1760.844 145.931, 1758.194 144.160, 1754.754 142.553 C 1747.102 138.976, 1746.127 138.586, 1747.835 139.786 M 1873.183 250.809 L 1873.022 265.674 1875.511 267.006 C 1876.880 267.739, 1878 268.627, 1878 268.980 C 1878 270.610, 1882.315 274, 1884.389 274 C 1885.660 274, 1888.564 275.350, 1890.841 277 C 1893.119 278.650, 1895.179 280, 1895.420 280 C 1895.660 280, 1897.951 282.007, 1900.511 284.459 C 1904.603 288.380, 1905.614 290.032, 1905.923 293.309 C 1905.966 293.754, 1906.383 293.881, 1906.851 293.592 C 1907.790 293.012, 1907.517 313.355, 1906.565 314.895 C 1906.238 315.425, 1905.997 495.552, 1906.030 715.179 C 1906.063 934.805, 1906.025 1119.675, 1905.946 1126 C 1905.572 1155.753, 1905.999 1182.805, 1906.889 1185.769 C 1907.480 1187.734, 1907.498 1188.808, 1906.936 1188.460 C 1906.421 1188.142, 1906 1188.809, 1906 1189.941 C 1906 1191.073, 1906.368 1192, 1906.817 1192 C 1907.267 1192, 1907.606 1193.651, 1907.571 1195.668 C 1907.536 1197.685, 1907.986 1199.495, 1908.572 1199.691 C 1909.838 1200.113, 1911.222 1187.385, 1913.975 1150 C 1920.311 1063.968, 1920.171 1075.257, 1919.820 680.500 L 1919.500 321.500 1916.195 309.500 C 1914.378 302.900, 1911.794 295.627, 1910.454 293.338 C 1907.319 287.980, 1903.017 282.872, 1902.111 283.431 C 1901.722 283.672, 1900.751 283.455, 1899.952 282.949 C 1898.739 282.182, 1898.732 282.028, 1899.905 282.015 C 1902.006 281.992, 1898.722 278.691, 1891.406 273.470 C 1883.772 268.023, 1881.471 264.210, 1878.814 252.608 C 1877.667 247.599, 1876.452 243.275, 1876.114 243 C 1875.777 242.725, 1875.375 241.385, 1875.221 240.021 C 1875.068 238.658, 1874.583 237.183, 1874.143 236.743 C 1873.703 236.303, 1873.271 242.633, 1873.183 250.809 M 630.403 517.910 C 594.177 518.384, 584.978 518.772, 583.643 519.881 C 582.728 520.640, 581.297 523.611, 580.462 526.483 C 579.627 529.354, 577.868 532.715, 576.553 533.951 C 575.237 535.186, 573.636 537.464, 572.995 539.012 C 572.286 540.725, 570.787 542.086, 569.165 542.491 C 567.699 542.857, 565.825 543.724, 565 544.418 C 564.175 545.112, 560.399 546.989, 556.609 548.590 C 546.456 552.877, 546.699 551.812, 547.171 589.979 C 547.390 607.795, 547.981 622.207, 548.530 623.126 C 549.063 624.020, 550.925 625.941, 552.667 627.395 L 555.835 630.039 620.509 631.031 L 685.184 632.023 689.418 634.505 C 696.842 638.855, 701.536 644.027, 703.934 650.496 C 706.066 656.249, 706.192 658.477, 707.038 705.496 C 707.523 732.448, 707.954 789.600, 707.994 832.500 C 708.035 875.400, 708.470 918.768, 708.960 928.874 C 709.842 947.049, 709.883 947.287, 712.734 950.810 C 715.732 954.514, 716.590 954.907, 726.485 957.104 C 730.382 957.969, 733.476 959.393, 735.352 961.186 C 736.936 962.700, 739.093 964.212, 740.145 964.546 C 741.964 965.123, 743.750 967.878, 747.723 976.240 C 749.693 980.386, 751 981.072, 751 977.960 C 751 975.039, 754.534 968.518, 757.749 965.505 C 763.030 960.558, 769.477 957.234, 776.365 955.909 C 781.930 954.838, 783.435 954.138, 784.310 952.219 C 784.904 950.916, 786.611 949.218, 788.105 948.446 L 790.820 947.041 791.248 921.771 C 791.484 907.872, 791.750 849.475, 791.840 792 C 791.930 734.525, 792.299 679.485, 792.660 669.688 C 793.308 652.126, 793.356 651.827, 796.119 648.350 C 797.660 646.411, 799.196 643.956, 799.533 642.895 C 799.870 641.835, 801.800 640.072, 803.823 638.979 C 805.845 637.886, 808.729 636.012, 810.232 634.814 C 812.853 632.724, 814.229 632.605, 844.232 631.848 C 861.429 631.414, 891.170 630.934, 910.321 630.780 C 942.385 630.522, 945.220 630.360, 946.129 628.735 C 947.183 626.851, 948.329 625.742, 951.470 623.568 C 953.347 622.269, 953.459 620.673, 953.838 589.680 L 954.235 557.154 949.526 552.577 C 946.936 550.060, 944.395 548, 943.880 548 C 943.365 548, 939.693 546.438, 935.722 544.528 C 928.026 540.828, 922.634 535.494, 921.419 530.378 C 920.634 527.076, 915.228 519.402, 913 518.428 C 911.022 517.563, 688.139 517.155, 630.403 517.910 M 1039.359 550.445 C 1035.397 552.169, 1035.589 551.566, 1027.537 587.396 C 1027.303 588.438, 1028.403 595.638, 1029.982 603.396 C 1032.221 614.398, 1033.008 621.632, 1033.561 636.285 C 1034.260 654.845, 1034.303 655.118, 1037.117 659.002 C 1039.382 662.129, 1041.108 663.266, 1045.548 664.557 C 1048.619 665.450, 1051.388 666.846, 1051.700 667.660 C 1052.012 668.474, 1053.812 670.121, 1055.699 671.320 C 1058.305 672.976, 1059.807 675.189, 1061.949 680.530 C 1064.458 686.784, 1064.849 689.320, 1065.499 703.530 L 1066.229 719.500 1069.604 723.655 C 1072.241 726.902, 1074.099 728.097, 1078.110 729.125 C 1081.411 729.971, 1083.787 731.272, 1084.770 732.771 C 1085.610 734.053, 1087.580 735.766, 1089.148 736.577 C 1090.717 737.388, 1092 738.559, 1092 739.179 C 1092 739.799, 1093.110 742.654, 1094.467 745.522 C 1096.630 750.095, 1097.036 752.784, 1097.759 767.342 C 1098.564 783.564, 1098.652 784.045, 1101.578 788.223 C 1103.971 791.640, 1105.739 792.902, 1110.369 794.500 C 1113.556 795.600, 1116.599 797.288, 1117.131 798.250 C 1117.664 799.213, 1119.315 800.629, 1120.800 801.398 C 1122.707 802.386, 1124.416 804.955, 1126.618 810.148 C 1129.536 817.027, 1129.774 818.519, 1130.322 833.341 L 1130.908 849.181 1134.393 853.435 C 1137.033 856.657, 1139.207 858.106, 1143.358 859.412 C 1146.372 860.360, 1149.089 861.789, 1149.395 862.587 C 1149.702 863.386, 1151.538 864.975, 1153.476 866.118 C 1155.414 867.262, 1157.014 868.716, 1157.031 869.349 C 1157.049 869.982, 1158.399 873.189, 1160.031 876.475 C 1162.957 882.362, 1163 882.687, 1163 898.725 C 1163 907.676, 1163.353 915, 1163.784 915 C 1164.216 915, 1165.368 916.352, 1166.344 918.005 C 1168.353 921.406, 1171.873 923.510, 1177.237 924.517 C 1179.513 924.944, 1181.511 926.131, 1182.504 927.647 C 1183.384 928.990, 1185.133 930.480, 1186.391 930.958 C 1187.863 931.518, 1189.982 934.470, 1192.348 939.258 C 1194.367 943.344, 1197.746 948.558, 1199.856 950.844 L 1203.693 955 1218.096 955.145 C 1247.396 955.440, 1270.491 954.807, 1270.898 953.698 C 1271.439 952.223, 1275.339 948.388, 1276.796 947.898 C 1277.446 947.679, 1278.465 944.800, 1279.060 941.500 C 1280.951 931.010, 1291.375 918.515, 1300.127 916.247 C 1303.086 915.480, 1303.440 914.940, 1304.566 909.457 C 1305.239 906.181, 1306.937 899.900, 1308.338 895.500 C 1309.740 891.100, 1311.202 884.800, 1311.588 881.500 C 1312.698 872.009, 1317.733 862.628, 1325.288 855.978 C 1327.882 853.694, 1331.229 851.498, 1332.724 851.098 C 1335.046 850.478, 1335.612 849.576, 1336.595 844.936 C 1337.228 841.946, 1338.885 835.900, 1340.276 831.500 C 1341.667 827.100, 1343.506 819.694, 1344.362 815.043 C 1345.316 809.860, 1346.719 805.602, 1347.987 804.043 C 1349.124 802.644, 1350.719 800.048, 1351.531 798.274 C 1352.343 796.500, 1354.243 794.405, 1355.753 793.619 C 1357.264 792.833, 1359.591 791.022, 1360.924 789.595 C 1362.258 788.168, 1364.115 787, 1365.052 787 C 1365.989 787, 1367.188 786.438, 1367.718 785.750 C 1368.973 784.120, 1375.747 757.959, 1376.586 751.500 C 1378.014 740.509, 1389.359 728, 1397.899 728 C 1399.002 728, 1400.240 726.834, 1400.946 725.130 C 1401.600 723.551, 1403.174 721.786, 1404.443 721.208 C 1406.957 720.062, 1407.238 718.272, 1408.560 695 C 1409.194 683.843, 1411.097 675.994, 1413.691 673.842 C 1414.560 673.120, 1416.275 670.940, 1417.502 668.997 C 1419.272 666.193, 1421.100 664.982, 1426.366 663.123 C 1430.015 661.834, 1433 660.358, 1433 659.842 C 1433 659.327, 1434.175 657.815, 1435.611 656.484 C 1438.076 654.200, 1438.298 653.180, 1439.573 638.282 C 1441.104 620.380, 1441.279 606.428, 1440.342 577 L 1439.689 556.500 1435.962 552.750 L 1432.235 549 1400.086 549 C 1375.239 549, 1367.196 549.309, 1364.680 550.360 C 1362.134 551.424, 1360.704 553.221, 1358.113 558.610 C 1350.773 573.881, 1351.958 572.701, 1336.192 580.445 C 1326.778 585.068, 1326.390 586.018, 1325.754 606.016 C 1325.266 621.369, 1325.224 621.605, 1321.712 628.579 C 1319.131 633.704, 1317.056 636.359, 1314.103 638.313 C 1311.870 639.791, 1309.653 641, 1309.176 641 C 1307.032 641, 1295.968 649.168, 1294.693 651.692 C 1293.747 653.565, 1293.053 659.891, 1292.609 670.686 C 1292.066 683.908, 1291.561 687.754, 1289.851 691.686 C 1285.800 701.006, 1284.136 702.445, 1266.699 711.709 C 1260.806 714.840, 1259.344 718.997, 1258.159 736 C 1257.002 752.600, 1254.890 760.677, 1251.286 762.286 C 1250.216 762.763, 1248.609 764.393, 1247.714 765.907 C 1246.492 767.977, 1244.775 768.971, 1240.794 769.915 C 1232.398 771.907, 1227.118 769.091, 1219.978 758.810 L 1215.595 752.500 1214.883 735.705 C 1214.117 717.641, 1213.322 714.833, 1208.448 712.980 C 1207.101 712.468, 1206 711.626, 1206 711.108 C 1206 710.138, 1194.164 704, 1192.292 704 C 1191.715 704, 1190.676 702.633, 1189.984 700.962 C 1189.292 699.291, 1187.927 697.496, 1186.950 696.973 C 1184.144 695.472, 1182.145 688.439, 1180.989 676 C 1179.219 656.963, 1178.976 655.853, 1175.684 651.756 C 1173.998 649.659, 1171.467 647.656, 1170.060 647.306 C 1165.858 646.261, 1157.594 639.385, 1153.781 633.761 C 1151.150 629.881, 1149.915 626.662, 1149.075 621.500 C 1148.134 615.714, 1145.039 603.373, 1141.176 590.003 C 1140.643 588.161, 1138.572 586.612, 1133.268 584.091 C 1127.750 581.468, 1125.853 580.017, 1125.093 577.838 C 1124.549 576.277, 1123.626 575, 1123.041 575 C 1121.594 575, 1117.242 565.424, 1116.458 560.514 C 1115.990 557.589, 1114.735 555.525, 1111.744 552.764 L 1107.667 549 1075.084 549.039 C 1049.798 549.070, 1041.796 549.384, 1039.359 550.445 M 1897.225 1221.979 C 1897.376 1222.600, 1894.800 1224.251, 1891.500 1225.648 C 1888.200 1227.046, 1882.691 1230.284, 1879.259 1232.845 L 1873.018 1237.500 1873.081 1254.728 C 1873.116 1264.204, 1872.788 1272.529, 1872.351 1273.228 C 1871.915 1273.928, 1871.419 1275.400, 1871.250 1276.500 C 1871.081 1277.600, 1870.502 1278.651, 1869.965 1278.835 C 1869.427 1279.020, 1869.242 1279.582, 1869.553 1280.085 C 1869.864 1280.588, 1869.291 1281, 1868.281 1281 C 1867.271 1281, 1865.674 1281.900, 1864.732 1283 C 1863.790 1284.100, 1863.310 1285, 1863.665 1285 C 1864.020 1285, 1863.495 1285.900, 1862.500 1287 C 1861.505 1288.100, 1860.080 1289, 1859.334 1289 C 1856.503 1289, 1849.239 1293.184, 1847.978 1295.541 C 1847.254 1296.893, 1846.240 1298, 1845.725 1298 C 1843.362 1298, 1840.179 1303.807, 1838.639 1310.927 C 1838.470 1311.711, 1836.945 1313.097, 1835.251 1314.005 C 1833.143 1315.136, 1832.426 1316.071, 1832.980 1316.968 C 1833.568 1317.918, 1835.810 1316.246, 1841.145 1310.877 C 1845.190 1306.807, 1852 1300.859, 1856.277 1297.661 C 1864.392 1291.594, 1872.721 1282.467, 1875.880 1276.179 C 1877.864 1272.230, 1879.006 1267.660, 1881.544 1253.503 C 1883.601 1242.032, 1886.030 1236.447, 1891.103 1231.523 C 1896.646 1226.143, 1899.289 1222.297, 1897.993 1221.496 C 1897.420 1221.141, 1897.074 1221.359, 1897.225 1221.979 M 100 1222.713 C 100 1223.276, 101.937 1227.532, 104.305 1232.173 C 107.019 1237.491, 109.085 1243.269, 109.896 1247.805 C 111.035 1254.180, 111.428 1254.987, 113.341 1254.884 C 115.007 1254.794, 115.104 1254.664, 113.766 1254.314 C 112.018 1253.856, 111.767 1249.804, 113.331 1247.274 C 113.717 1246.649, 113.595 1245.868, 113.060 1245.537 C 112.525 1245.206, 112.343 1244.270, 112.656 1243.455 C 112.968 1242.641, 112.808 1241.418, 112.301 1240.737 C 111.793 1240.057, 111.435 1238.825, 111.506 1238 C 111.716 1235.556, 108.704 1231, 106.878 1231 C 105.775 1231, 105.333 1230.392, 105.607 1229.250 C 106.075 1227.296, 105.523 1226.366, 102.250 1223.595 C 101.013 1222.547, 100 1222.150, 100 1222.713 M 127.089 1290.125 C 128.183 1291.661, 130.880 1294.794, 133.084 1297.087 C 135.288 1299.381, 137.938 1302.917, 138.972 1304.946 C 140.007 1306.974, 141.607 1309.259, 142.528 1310.023 C 144.470 1311.635, 147.280 1312.263, 146.436 1310.896 C 146.120 1310.385, 145.366 1310.274, 144.761 1310.648 C 144.063 1311.079, 143.883 1310.746, 144.271 1309.737 C 144.606 1308.862, 144.280 1307.647, 143.545 1307.037 C 142.810 1306.428, 141.912 1304.343, 141.548 1302.404 C 140.848 1298.672, 132.081 1289, 129.399 1289 C 128.629 1289, 128 1288.625, 128 1288.167 C 128 1287.708, 127.348 1287.333, 126.551 1287.333 C 125.413 1287.333, 125.529 1287.935, 127.089 1290.125 M 149.057 1318.068 C 151.391 1320.855, 156.262 1325.693, 159.882 1328.818 C 163.502 1331.943, 171.197 1339.042, 176.982 1344.594 C 193.247 1360.204, 196.579 1361.878, 216.630 1364.526 C 236.635 1367.167, 243.429 1369.565, 258 1379.126 C 284.959 1396.816, 289.811 1398.412, 323 1400.506 C 350.383 1402.234, 365.396 1404.255, 372.022 1407.105 C 380.598 1410.794, 386.625 1418.478, 396.439 1438.231 C 401.158 1447.729, 406.633 1458.425, 408.607 1462 C 410.580 1465.575, 414.240 1473.675, 416.740 1480 L 421.286 1491.500 422.050 1518 C 422.471 1532.575, 423.309 1547.266, 423.913 1550.647 C 424.517 1554.028, 425.657 1566.178, 426.448 1577.647 C 428.666 1609.840, 430.471 1616.326, 441.981 1633.458 C 449.265 1644.301, 458.569 1653.140, 467.500 1657.702 C 470.250 1659.107, 473.694 1661.099, 475.154 1662.128 C 477.740 1663.952, 491.592 1664, 1010.698 1664 L 1543.587 1664 1549.690 1658.065 C 1553.311 1654.543, 1556.948 1649.764, 1558.632 1646.315 C 1561.782 1639.863, 1561.608 1643.600, 1560.837 1599 L 1560.500 1579.500 1564.231 1570.199 C 1566.313 1565.010, 1569.963 1558.297, 1572.488 1555.015 C 1579.465 1545.948, 1584.001 1535.704, 1583.994 1529.028 C 1583.986 1520.985, 1582.535 1516.901, 1576.605 1508.234 C 1573.694 1503.981, 1570.734 1498.742, 1570.027 1496.594 C 1567.879 1490.067, 1569.497 1478.073, 1576.584 1448 C 1578.463 1440.025, 1580 1431.468, 1580 1428.984 C 1580 1421.993, 1588.787 1407.680, 1595 1404.551 C 1601.414 1401.321, 1619.505 1399.120, 1661 1396.522 C 1687.528 1394.861, 1695.154 1393.642, 1705.063 1389.477 C 1712.742 1386.249, 1716.183 1383.910, 1720.846 1378.749 C 1728.140 1370.675, 1737.682 1366.974, 1758.782 1364.036 C 1785.172 1360.361, 1786.911 1360.016, 1792.598 1357.323 C 1796.951 1355.263, 1799.936 1352.665, 1805.826 1345.812 C 1810.009 1340.944, 1817.878 1333.098, 1823.312 1328.377 C 1830.453 1322.171, 1832.889 1319.489, 1832.099 1318.699 C 1831.310 1317.910, 1830.652 1318.093, 1829.726 1319.360 C 1829.022 1320.323, 1827.783 1321.210, 1826.973 1321.329 C 1824.182 1321.742, 1819 1324.245, 1819 1325.180 C 1819 1325.696, 1818.662 1325.914, 1818.250 1325.664 C 1817.353 1325.121, 1815.365 1327.102, 1815.444 1328.460 C 1815.475 1328.988, 1813.971 1330.451, 1812.102 1331.710 C 1810.233 1332.970, 1809.051 1334, 1809.475 1334 C 1809.898 1334, 1809.685 1334.675, 1809 1335.500 C 1808.315 1336.325, 1808.148 1337.007, 1808.628 1337.015 C 1809.107 1337.024, 1808.857 1337.438, 1808.070 1337.935 C 1807.284 1338.433, 1806.532 1339.580, 1806.399 1340.484 C 1806.267 1341.388, 1805.231 1342.933, 1804.097 1343.916 C 1802.964 1344.899, 1802.328 1345.995, 1802.685 1346.352 C 1803.042 1346.708, 1802.594 1347, 1801.691 1347 C 1800.787 1347, 1799.111 1348.688, 1797.965 1350.750 C 1796.820 1352.813, 1796.131 1353.684, 1796.434 1352.687 C 1796.924 1351.076, 1796.641 1351.120, 1793.893 1353.076 C 1790.991 1355.143, 1789.774 1355.274, 1774.150 1355.201 C 1757.553 1355.123, 1753.636 1355.629, 1740 1359.616 C 1736.975 1360.501, 1732.001 1361.672, 1728.947 1362.218 C 1724.169 1363.074, 1723.052 1363.721, 1720.951 1366.856 C 1717.651 1371.778, 1708.208 1381.004, 1703.747 1383.665 C 1701.750 1384.856, 1697.728 1386.343, 1694.808 1386.969 C 1690.861 1387.815, 1510.073 1388.029, 989.500 1387.803 C 331.273 1387.518, 289.314 1387.398, 286.377 1385.790 C 284.659 1384.849, 283.023 1384.311, 282.741 1384.593 C 282.459 1384.875, 281.389 1384.048, 280.364 1382.756 C 278.129 1379.939, 275.227 1377.921, 276.537 1380.095 C 277.205 1381.203, 276.974 1381.183, 275.442 1380 C 272.714 1377.893, 271.094 1375.656, 271.648 1374.761 C 271.906 1374.342, 271.641 1374, 271.059 1374 C 270.477 1374, 270 1373.502, 270 1372.894 C 270 1372.286, 268.841 1370.876, 267.425 1369.763 C 266.009 1368.649, 264.484 1366.774, 264.036 1365.596 C 263.520 1364.239, 262.233 1363.373, 260.519 1363.231 C 256.472 1362.896, 245.671 1359.963, 244.294 1358.825 C 243.630 1358.276, 242.598 1358.130, 242 1358.500 C 241.402 1358.870, 240.188 1358.571, 239.303 1357.836 C 238.417 1357.101, 237.649 1356.644, 237.596 1356.820 C 237.543 1356.996, 236.341 1356.700, 234.925 1356.161 C 233.508 1355.623, 224.508 1355.119, 214.925 1355.041 C 205.341 1354.963, 196.375 1354.809, 195 1354.700 C 192.111 1354.469, 180.444 1343.708, 181.402 1342.158 C 181.741 1341.609, 180.976 1340.337, 179.700 1339.330 C 178.425 1338.324, 176.739 1336.044, 175.953 1334.265 C 175.096 1332.322, 173.403 1330.639, 171.716 1330.051 C 170.170 1329.512, 167.742 1328.155, 166.318 1327.036 C 164.895 1325.916, 162.891 1325, 161.865 1325 C 160.839 1325, 160 1324.580, 160 1324.066 C 160 1323.553, 158.762 1322.990, 157.250 1322.816 C 155.738 1322.642, 154.607 1321.954, 154.738 1321.286 C 154.878 1320.574, 154.347 1320.313, 153.455 1320.656 C 152.365 1321.074, 151.474 1320.071, 150.315 1317.120 C 149.193 1314.264, 148.101 1313, 146.755 1313 C 145.136 1313, 145.518 1313.841, 149.057 1318.068 M 518.500 1446.647 C 516.850 1447.541, 514.150 1448.947, 512.500 1449.772 C 507.751 1452.145, 500.954 1459.120, 498.969 1463.659 C 497.968 1465.946, 496.239 1468.107, 495.126 1468.460 C 494.013 1468.813, 492.837 1469.939, 492.512 1470.961 C 491.441 1474.337, 489.525 1474.911, 474.178 1476.450 C 462.818 1477.589, 458.024 1478.496, 455.235 1480.033 C 444.848 1485.758, 444.021 1486.406, 442.946 1489.664 C 442.340 1491.499, 441.502 1493, 441.083 1493 C 439.598 1493, 437.762 1498.582, 437.300 1504.500 C 437.043 1507.800, 436.423 1512.075, 435.922 1514 C 433.445 1523.520, 436.127 1559.101, 440.559 1575.500 C 441.302 1578.250, 442.181 1582.525, 442.513 1585 C 443.634 1593.372, 444.983 1596.851, 447.914 1598.939 C 449.489 1600.060, 451.035 1602.002, 451.349 1603.253 C 451.808 1605.085, 453.829 1606.202, 461.710 1608.982 C 467.094 1610.881, 472.175 1612.559, 473 1612.711 C 473.825 1612.863, 477.425 1613.432, 481 1613.974 C 485.209 1614.613, 671.244 1614.967, 1008.782 1614.980 C 1456.252 1614.997, 1530.544 1614.799, 1533.454 1613.584 C 1535.319 1612.804, 1537.595 1611.022, 1538.512 1609.623 C 1539.429 1608.223, 1541.080 1606.792, 1542.181 1606.443 C 1545.257 1605.466, 1547.201 1599.602, 1548.627 1587 C 1549.342 1580.675, 1550.135 1574.600, 1550.387 1573.500 C 1550.640 1572.400, 1550.881 1569.512, 1550.923 1567.083 C 1550.966 1564.654, 1551.301 1562.968, 1551.670 1563.336 C 1552.038 1563.705, 1553.384 1562.254, 1554.660 1560.114 C 1556.010 1557.851, 1558.029 1555.959, 1559.485 1555.593 C 1560.862 1555.248, 1561.878 1554.572, 1561.744 1554.091 C 1561.461 1553.078, 1565.783 1549.073, 1567.403 1548.848 C 1568.006 1548.764, 1569.175 1548.651, 1570 1548.598 C 1570.825 1548.544, 1571.633 1547.600, 1571.795 1546.500 C 1571.957 1545.400, 1573.008 1543.375, 1574.132 1542 C 1575.255 1540.625, 1575.883 1540.063, 1575.528 1540.750 C 1575.173 1541.438, 1575.122 1542, 1575.415 1542 C 1576.435 1542, 1578.768 1536.475, 1579.426 1532.500 C 1579.978 1529.163, 1579.666 1527.929, 1577.544 1525.056 C 1576.145 1523.161, 1574.992 1522.036, 1574.983 1522.556 C 1574.974 1523.075, 1574.012 1522.009, 1572.845 1520.187 C 1571.627 1518.285, 1569.078 1516.215, 1566.862 1515.328 C 1564.738 1514.478, 1563 1513.479, 1563 1513.107 C 1563 1512.735, 1561.537 1511.595, 1559.750 1510.574 C 1555.167 1507.955, 1548.274 1500.119, 1547.603 1496.765 C 1547.292 1495.211, 1545.904 1492.889, 1544.519 1491.605 C 1543.134 1490.321, 1542 1488.924, 1542 1488.500 C 1542 1487.023, 1536.883 1483, 1535.005 1483 C 1533.965 1483, 1532.525 1482.182, 1531.807 1481.183 C 1530.390 1479.212, 1525.431 1477.719, 1514.519 1475.976 C 1510.679 1475.363, 1507.079 1474.501, 1506.519 1474.061 C 1505.958 1473.621, 1503.813 1472.717, 1501.750 1472.053 C 1499.688 1471.388, 1498 1470.502, 1498 1470.083 C 1498 1469.664, 1496.853 1468.798, 1495.451 1468.160 C 1494.050 1467.521, 1492.358 1465.702, 1491.692 1464.118 C 1490.228 1460.636, 1481.472 1452.579, 1478 1451.519 C 1476.625 1451.099, 1474.885 1450.262, 1474.134 1449.659 C 1473.382 1449.056, 1471.132 1447.874, 1469.134 1447.032 C 1465.892 1445.667, 1414.564 1445.476, 993.500 1445.261 C 559.286 1445.040, 521.260 1445.151, 518.500 1446.647" stroke="none" fill="#6512af" fill-rule="evenodd"/><path d="M 322.867 114.419 C 322.665 114.594, 317.325 115.008, 311 115.339 C 296.055 116.119, 275.091 118.626, 267.500 120.539 C 264.200 121.371, 259.193 123.170, 256.374 124.538 C 250.817 127.235, 238.578 138.508, 239.531 140.051 C 239.854 140.573, 239.465 141, 238.666 141 C 237.867 141, 236.944 141.704, 236.614 142.563 C 236.284 143.423, 235.537 143.832, 234.954 143.472 C 234.371 143.111, 233.130 143.687, 232.197 144.752 C 231.264 145.816, 229.928 146.492, 229.229 146.253 C 228.530 146.014, 226.505 146.339, 224.729 146.975 C 221.403 148.166, 215.517 149.297, 203.714 151.015 C 191.855 152.741, 181.357 159.788, 174.312 170.750 C 172.457 173.637, 170.435 176, 169.821 176 C 169.206 176, 166.857 177.809, 164.601 180.019 C 162.346 182.230, 158.250 186.226, 155.500 188.899 C 149.309 194.916, 143.063 202.108, 141.358 205.180 C 140.650 206.456, 140.055 207.143, 140.035 206.707 C 140.016 206.271, 136.251 209.646, 131.668 214.207 C 119.601 226.217, 114.543 237.767, 112.540 257.881 C 112.012 263.186, 109.519 269.861, 107.552 271.235 C 106.973 271.639, 106.899 271.976, 107.386 271.985 C 107.874 271.993, 107.020 273.238, 105.488 274.750 C 102.214 277.984, 97.277 285.476, 93.793 292.500 C 88.784 302.599, 86.158 319.052, 84.857 348.500 C 84.063 366.466, 81.831 728.646, 81.643 870 C 81.564 930.081, 84.704 1147.056, 85.944 1167.095 C 86.965 1183.615, 90.183 1204.307, 92.519 1209.385 C 95.218 1215.249, 99.884 1223.061, 100.692 1223.068 C 102.687 1223.083, 106.164 1227.265, 105.690 1229.077 C 105.336 1230.429, 105.703 1231, 106.925 1231 C 108.704 1231, 111.432 1235.038, 111.586 1237.901 C 111.634 1238.781, 112.027 1240.307, 112.460 1241.293 C 112.893 1242.279, 112.970 1243.363, 112.632 1243.701 C 112.294 1244.039, 112.485 1244.880, 113.057 1245.569 C 113.749 1246.402, 113.761 1247.030, 113.092 1247.443 C 112.540 1247.785, 112.369 1248.798, 112.714 1249.696 C 113.107 1250.722, 112.940 1251.081, 112.263 1250.663 C 111.578 1250.239, 111.377 1250.725, 111.710 1251.999 C 111.998 1253.099, 112.968 1254.032, 113.867 1254.070 C 115.130 1254.125, 115.047 1254.335, 113.500 1255 C 112.400 1255.473, 112.118 1255.891, 112.872 1255.930 C 113.844 1255.979, 113.948 1256.365, 113.228 1257.250 C 112.183 1258.535, 114.370 1271.892, 115.803 1272.974 C 116.186 1273.263, 117.302 1275.233, 118.283 1277.352 C 119.263 1279.471, 120.950 1281.436, 122.033 1281.719 C 123.295 1282.049, 124 1283.087, 124 1284.617 C 124 1286.744, 124.956 1287.481, 127.250 1287.118 C 127.663 1287.053, 128 1287.450, 128 1288 C 128 1288.550, 128.629 1289, 129.399 1289 C 131.926 1289, 140.749 1298.574, 141.513 1302.145 C 141.908 1303.990, 142.735 1306.123, 143.350 1306.886 C 143.966 1307.648, 144.521 1308.773, 144.583 1309.386 C 144.645 1309.998, 144.764 1311.063, 144.848 1311.750 C 144.931 1312.438, 145.948 1313, 147.107 1313 C 148.689 1313, 149.049 1313.429, 148.554 1314.720 C 148.191 1315.665, 148.226 1316.108, 148.630 1315.703 C 149.035 1315.298, 149.958 1316.373, 150.680 1318.091 C 151.565 1320.195, 152.482 1321.029, 153.485 1320.644 C 154.348 1320.313, 154.876 1320.584, 154.738 1321.286 C 154.607 1321.954, 155.738 1322.642, 157.250 1322.816 C 158.763 1322.990, 160 1323.553, 160 1324.066 C 160 1324.580, 160.839 1325, 161.865 1325 C 162.891 1325, 164.895 1325.916, 166.318 1327.036 C 167.742 1328.155, 170.170 1329.512, 171.716 1330.051 C 173.403 1330.639, 175.096 1332.322, 175.953 1334.265 C 176.739 1336.044, 178.425 1338.324, 179.700 1339.330 C 180.976 1340.337, 181.741 1341.609, 181.402 1342.158 C 180.444 1343.708, 192.111 1354.469, 195 1354.700 C 196.375 1354.809, 205.341 1354.963, 214.925 1355.041 C 224.739 1355.120, 233.474 1355.652, 234.925 1356.257 C 236.341 1356.849, 237.725 1357.377, 238 1357.432 C 238.275 1357.486, 239.063 1357.888, 239.750 1358.324 C 240.438 1358.761, 241.470 1358.828, 242.044 1358.473 C 242.618 1358.118, 243.630 1358.276, 244.294 1358.825 C 245.671 1359.963, 256.472 1362.896, 260.519 1363.231 C 262.233 1363.373, 263.520 1364.239, 264.036 1365.596 C 264.484 1366.774, 266.009 1368.649, 267.425 1369.763 C 268.841 1370.876, 270 1372.286, 270 1372.894 C 270 1373.502, 270.477 1374, 271.059 1374 C 271.641 1374, 271.906 1374.342, 271.648 1374.761 C 271.094 1375.656, 272.714 1377.893, 275.442 1380 C 276.974 1381.183, 277.205 1381.203, 276.537 1380.095 C 275.227 1377.921, 278.129 1379.939, 280.364 1382.756 C 281.389 1384.048, 282.459 1384.875, 282.741 1384.593 C 283.023 1384.311, 284.659 1384.849, 286.377 1385.790 C 289.314 1387.398, 331.273 1387.518, 989.500 1387.803 C 1510.073 1388.029, 1690.861 1387.815, 1694.808 1386.969 C 1697.728 1386.343, 1701.750 1384.856, 1703.747 1383.665 C 1708.208 1381.004, 1717.651 1371.778, 1720.951 1366.856 C 1723.052 1363.721, 1724.169 1363.074, 1728.947 1362.218 C 1732.001 1361.672, 1736.975 1360.501, 1740 1359.616 C 1753.636 1355.629, 1757.553 1355.123, 1774.150 1355.201 C 1789.774 1355.274, 1790.991 1355.143, 1793.893 1353.076 C 1796.641 1351.120, 1796.924 1351.076, 1796.434 1352.687 C 1796.131 1353.684, 1796.820 1352.813, 1797.965 1350.750 C 1799.111 1348.687, 1800.787 1347, 1801.691 1347 C 1802.594 1347, 1803.042 1346.708, 1802.685 1346.352 C 1802.328 1345.995, 1802.964 1344.899, 1804.097 1343.916 C 1805.231 1342.933, 1806.267 1341.388, 1806.399 1340.484 C 1806.532 1339.580, 1807.284 1338.433, 1808.070 1337.935 C 1808.857 1337.438, 1809.107 1337.024, 1808.628 1337.015 C 1808.148 1337.007, 1808.315 1336.325, 1809 1335.500 C 1809.685 1334.675, 1809.898 1334, 1809.475 1334 C 1809.051 1334, 1810.200 1332.987, 1812.028 1331.750 C 1813.855 1330.513, 1815.159 1329.264, 1814.925 1328.975 C 1814.296 1328.199, 1817.374 1325.134, 1818.250 1325.664 C 1818.662 1325.914, 1819 1325.696, 1819 1325.180 C 1819 1324.323, 1823.744 1321.931, 1826.750 1321.273 C 1827.438 1321.123, 1828.563 1320.875, 1829.250 1320.722 C 1831.874 1320.138, 1833.156 1318.705, 1832.681 1316.887 C 1832.409 1315.846, 1832.706 1314.990, 1833.344 1314.978 C 1836.122 1314.924, 1839.322 1311.151, 1839.699 1307.485 C 1840.086 1303.709, 1843.548 1298.159, 1845.581 1298.055 C 1846.176 1298.025, 1847.254 1296.893, 1847.978 1295.541 C 1849.239 1293.184, 1856.503 1289, 1859.334 1289 C 1860.080 1289, 1861.505 1288.100, 1862.500 1287 C 1863.495 1285.900, 1864.020 1285, 1863.665 1285 C 1863.310 1285, 1863.790 1284.100, 1864.732 1283 C 1865.674 1281.900, 1867.271 1281, 1868.281 1281 C 1869.291 1281, 1869.864 1280.588, 1869.553 1280.085 C 1869.242 1279.582, 1869.427 1279.020, 1869.965 1278.835 C 1870.502 1278.651, 1871.081 1277.600, 1871.250 1276.500 C 1871.419 1275.400, 1871.915 1273.928, 1872.351 1273.228 C 1872.788 1272.529, 1873.116 1264.204, 1873.081 1254.728 L 1873.018 1237.500 1879.259 1232.854 C 1882.691 1230.298, 1887.975 1227.189, 1891 1225.944 C 1896.412 1223.717, 1901 1220.092, 1901 1218.044 C 1901 1217.470, 1901.338 1216.997, 1901.750 1216.994 C 1902.756 1216.985, 1906 1211.203, 1906 1209.419 C 1906 1208.639, 1906.403 1208, 1906.895 1208 C 1907.906 1208, 1908.899 1200.056, 1907.960 1199.475 C 1907.626 1199.269, 1907.433 1197.503, 1907.530 1195.550 C 1907.628 1193.598, 1907.323 1192, 1906.854 1192 C 1906.384 1192, 1906 1191.073, 1906 1189.941 C 1906 1188.809, 1906.421 1188.142, 1906.936 1188.460 C 1907.498 1188.808, 1907.480 1187.734, 1906.889 1185.769 C 1905.999 1182.805, 1905.572 1155.753, 1905.946 1126 C 1906.025 1119.675, 1906.063 934.805, 1906.030 715.179 C 1905.997 495.552, 1906.238 315.425, 1906.565 314.895 C 1907.517 313.355, 1907.790 293.012, 1906.851 293.592 C 1906.383 293.881, 1905.966 293.754, 1905.923 293.309 C 1905.654 290.456, 1904.984 288.608, 1904 288 C 1903.024 287.397, 1902.368 285.607, 1902.077 282.750 C 1902.034 282.337, 1901.239 282, 1900.309 282 C 1898.828 282, 1898.859 282.193, 1900.559 283.555 C 1902.414 285.041, 1902.398 285.061, 1900.194 283.990 C 1898.925 283.373, 1897.639 282.224, 1897.337 281.435 C 1897.034 280.646, 1896.380 280, 1895.884 280 C 1895.388 280, 1893.119 278.650, 1890.841 277 C 1888.564 275.350, 1885.660 274, 1884.389 274 C 1882.315 274, 1878 270.610, 1878 268.980 C 1878 268.627, 1876.880 267.739, 1875.511 267.006 L 1873.023 265.674 1873.182 249.587 L 1873.340 233.500 1868.748 226.972 C 1864.406 220.799, 1858.334 214.962, 1849.788 208.744 C 1847.705 207.228, 1846 206.315, 1846 206.716 C 1846 207.117, 1845.236 206.332, 1844.302 204.973 C 1840.197 198.995, 1828.751 185.962, 1825.768 183.869 C 1823.970 182.609, 1821.315 180.435, 1819.866 179.039 C 1803.208 162.982, 1798.718 159.088, 1794 156.606 C 1788.495 153.710, 1772.608 148.841, 1761.223 146.561 C 1759.792 146.274, 1759.189 146.496, 1759.599 147.159 C 1760.509 148.632, 1755.980 147.122, 1754.225 145.368 C 1753.473 144.616, 1751.989 144, 1750.929 144 C 1749.215 144, 1748.806 143.428, 1749.080 141.411 C 1749.220 140.375, 1742.692 134.866, 1736.574 130.856 C 1728.716 125.707, 1723.702 124.338, 1703.500 121.824 C 1687.695 119.858, 1681.929 119.715, 1621.500 119.787 C 1585.750 119.829, 1532.425 120.340, 1503 120.922 C 1433.561 122.295, 529.720 122.370, 494.500 121.006 C 480.750 120.473, 462.750 119.588, 454.500 119.040 C 437.300 117.896, 409.885 116.214, 396 115.449 C 384.665 114.824, 323.393 113.961, 322.867 114.419 M 306.500 284.056 C 269.953 285.085, 259.108 287.356, 255.599 294.714 C 254.715 296.568, 252.993 303.578, 251.771 310.292 L 249.549 322.500 249.237 738.500 C 249.034 1008.667, 249.274 1159.057, 249.922 1167.500 C 250.470 1174.650, 251.718 1186.469, 252.694 1193.764 C 254.385 1206.396, 254.638 1207.223, 258.016 1211.145 L 261.562 1215.263 280.531 1216.634 C 315.843 1219.185, 422.114 1219.501, 1056 1218.941 C 1720.385 1218.354, 1722.953 1218.336, 1725.500 1214.176 C 1726.050 1213.278, 1727.924 1211.183, 1729.665 1209.521 C 1732.715 1206.610, 1732.888 1205.995, 1734.435 1192.621 C 1735.318 1184.988, 1736.293 1178.335, 1736.601 1177.836 C 1736.910 1177.337, 1737.161 992.783, 1737.161 767.715 C 1737.160 399.259, 1736.995 355.811, 1735.512 331.500 C 1733.323 295.638, 1733.498 296.561, 1727.995 291.953 C 1723.700 288.357, 1722.854 288.086, 1709 285.885 L 1694.500 283.580 1013.500 283.452 C 638.950 283.381, 320.800 283.653, 306.500 284.056 M 838 499.631 C 835.525 499.810, 777.475 500.092, 709 500.257 C 592.925 500.537, 584.233 500.676, 580.554 502.309 C 572.745 505.777, 564.084 516.473, 564.022 522.724 C 564.008 524.146, 562.971 525.481, 561.148 526.423 C 559.580 527.234, 557.545 529.046, 556.625 530.449 C 555.706 531.852, 554.261 533, 553.415 533 C 552.568 533, 549.635 533.733, 546.897 534.628 C 543.369 535.782, 541.497 537.073, 540.470 539.058 C 539.674 540.598, 538.159 542.132, 537.104 542.467 C 536.050 542.802, 534.357 544.971, 533.343 547.288 C 531.695 551.054, 531.465 555.097, 531.174 585.500 C 530.945 609.309, 531.206 621.139, 532.044 624.969 C 533.712 632.590, 538.607 638.104, 547.628 642.527 L 554.756 646.022 575.128 646.555 C 586.333 646.848, 611.925 647.505, 632 648.015 C 671.888 649.029, 685.485 650.241, 686.522 652.876 C 688.833 658.745, 690.814 747.805, 690.917 850.500 C 690.975 907.738, 691.962 937.276, 694.222 949.353 C 695.055 953.808, 696.322 956.435, 699.525 960.353 C 703.593 965.328, 705.127 966.295, 721 973.889 C 723.505 975.088, 725.392 977.235, 727.640 981.444 C 729.366 984.679, 731.676 988.039, 732.773 988.912 C 733.869 989.786, 735.252 991.451, 735.845 992.614 C 736.484 993.866, 739.393 995.651, 742.975 996.991 C 748.356 999.003, 749.504 999.119, 753.368 998.037 C 758.518 996.595, 767.543 988.670, 768.534 984.719 C 769.392 981.300, 776.397 973.312, 779.286 972.457 C 781.520 971.796, 788.636 968.380, 794.898 964.962 C 800.071 962.138, 805.707 952.069, 807.191 943 C 807.686 939.975, 808.463 880.350, 808.918 810.500 C 809.792 676.429, 810.416 657.370, 814.055 653.578 C 815.403 652.173, 818.534 651.309, 825.699 650.364 C 836.055 648.998, 893.168 647.067, 926 646.973 C 944.623 646.920, 945.702 646.809, 950 644.514 C 952.475 643.191, 956.138 641.361, 958.141 640.446 C 960.570 639.336, 962.320 637.570, 963.398 635.141 C 964.287 633.138, 966.128 629.700, 967.490 627.500 L 969.967 623.500 969.984 589.100 L 970 554.700 967.250 549.155 C 963.378 541.349, 957.514 535.495, 952 533.932 C 946.189 532.284, 938.091 526.259, 937.328 523.014 C 937.003 521.631, 935.775 519.150, 934.598 517.500 C 933.422 515.850, 931.874 513.375, 931.159 512 C 929.387 508.593, 921.498 502.902, 917.206 501.934 C 915.272 501.498, 902.623 500.877, 889.095 500.554 C 875.568 500.231, 859.550 499.818, 853.500 499.636 C 847.450 499.454, 840.475 499.451, 838 499.631 M 630.403 517.910 C 594.177 518.384, 584.978 518.772, 583.643 519.881 C 582.728 520.640, 581.297 523.611, 580.462 526.483 C 579.627 529.354, 577.868 532.715, 576.553 533.951 C 575.237 535.186, 573.636 537.464, 572.995 539.012 C 572.286 540.725, 570.787 542.086, 569.165 542.491 C 567.699 542.857, 565.825 543.724, 565 544.418 C 564.175 545.112, 560.399 546.989, 556.609 548.590 C 546.456 552.877, 546.699 551.812, 547.171 589.979 C 547.390 607.795, 547.981 622.207, 548.530 623.126 C 549.063 624.020, 550.925 625.941, 552.667 627.395 L 555.835 630.039 620.509 631.031 L 685.184 632.023 689.418 634.505 C 696.842 638.855, 701.536 644.027, 703.934 650.496 C 706.066 656.249, 706.192 658.477, 707.038 705.496 C 707.523 732.448, 707.954 789.600, 707.994 832.500 C 708.035 875.400, 708.470 918.768, 708.960 928.874 C 709.842 947.049, 709.883 947.287, 712.734 950.810 C 715.732 954.514, 716.590 954.907, 726.485 957.104 C 730.382 957.969, 733.476 959.393, 735.352 961.186 C 736.936 962.700, 739.093 964.212, 740.145 964.546 C 741.964 965.123, 743.750 967.878, 747.723 976.240 C 749.693 980.386, 751 981.072, 751 977.960 C 751 975.039, 754.534 968.518, 757.749 965.505 C 763.030 960.558, 769.477 957.234, 776.365 955.909 C 781.930 954.838, 783.435 954.138, 784.310 952.219 C 784.904 950.916, 786.611 949.218, 788.105 948.446 L 790.820 947.041 791.248 921.771 C 791.484 907.872, 791.750 849.475, 791.840 792 C 791.930 734.525, 792.299 679.485, 792.660 669.688 C 793.308 652.126, 793.356 651.827, 796.119 648.350 C 797.660 646.411, 799.196 643.956, 799.533 642.895 C 799.870 641.835, 801.800 640.072, 803.823 638.979 C 805.845 637.886, 808.729 636.012, 810.232 634.814 C 812.853 632.724, 814.229 632.605, 844.232 631.848 C 861.429 631.414, 891.170 630.934, 910.321 630.780 C 942.385 630.522, 945.220 630.360, 946.129 628.735 C 947.183 626.851, 948.329 625.742, 951.470 623.568 C 953.347 622.269, 953.459 620.673, 953.838 589.680 L 954.235 557.154 949.526 552.577 C 946.936 550.060, 944.395 548, 943.880 548 C 943.365 548, 939.693 546.438, 935.722 544.528 C 928.026 540.828, 922.634 535.494, 921.419 530.378 C 920.634 527.076, 915.228 519.402, 913 518.428 C 911.022 517.563, 688.139 517.155, 630.403 517.910 M 1047 532.591 C 1036.758 533.288, 1031.083 535.082, 1028.177 538.540 C 1026.704 540.292, 1024.520 542.236, 1023.322 542.860 C 1021.858 543.622, 1020.624 545.880, 1019.560 549.747 C 1018.688 552.911, 1017.333 556.850, 1016.548 558.500 C 1013.023 565.911, 1011 571.015, 1011 572.496 C 1011 573.383, 1009.449 574.750, 1007.536 575.549 C 1005.631 576.345, 1003.593 577.893, 1003.006 578.988 C 1002.420 580.083, 1000.653 581.645, 999.079 582.459 C 997.505 583.273, 995.759 585.252, 995.200 586.856 C 993.812 590.837, 996.216 594.607, 1003.686 600.164 C 1010.615 605.318, 1010.704 605.426, 1012.082 610.410 C 1012.676 612.560, 1013.914 615.463, 1014.832 616.861 C 1016.165 618.893, 1016.623 623.022, 1017.112 637.451 C 1017.750 656.274, 1018.476 661.224, 1021.436 666.903 C 1024.365 672.523, 1032.081 678.417, 1038.770 680.145 C 1045.861 681.976, 1046.852 684.331, 1048.479 703.207 C 1050.446 726.036, 1051.977 731.107, 1058.704 737.064 C 1062.664 740.571, 1070.509 745, 1072.761 745 C 1073.808 745, 1076.018 746.688, 1077.671 748.750 C 1080.647 752.464, 1080.682 752.653, 1081.325 768.349 C 1082.068 786.498, 1084.303 796.254, 1088.613 800.160 C 1090.032 801.447, 1092.086 803.460, 1093.177 804.634 C 1095.242 806.858, 1100.604 809.450, 1105.147 810.421 C 1110.081 811.475, 1111.771 816.263, 1113.020 832.721 C 1114.988 858.666, 1117.673 864.714, 1130.500 872.102 C 1133.250 873.685, 1136.475 874.985, 1137.666 874.991 C 1138.971 874.996, 1141.003 876.490, 1142.779 878.750 C 1145.660 882.417, 1145.741 882.843, 1146.445 898 C 1147.251 915.369, 1148.752 922.675, 1152.532 927.630 C 1155.615 931.673, 1166.167 938.883, 1170.172 939.684 C 1173.586 940.367, 1181 949.134, 1181 952.487 C 1181 956.869, 1187.279 963.340, 1195.451 967.378 L 1203.127 971.172 1235.813 971.718 L 1268.500 972.263 1273.115 969.882 C 1283.898 964.317, 1285.654 963.010, 1288.618 958.348 C 1290.313 955.682, 1292.776 950.800, 1294.090 947.500 C 1295.405 944.200, 1297 941.167, 1297.634 940.760 C 1298.268 940.353, 1300.678 938.440, 1302.988 936.510 C 1305.299 934.579, 1307.992 933, 1308.974 933 C 1311.907 933, 1318.549 925.676, 1321.790 918.869 C 1325.368 911.353, 1325.724 909.660, 1327.417 892.063 C 1328.888 876.772, 1327.739 878.600, 1341.500 869.659 C 1348.992 864.792, 1349.732 863.986, 1353.145 856.987 C 1357.566 847.924, 1358.765 842.691, 1359.562 829 C 1360.406 814.499, 1361.064 812.790, 1367.305 808.901 C 1382.783 799.258, 1382.608 799.417, 1386.459 791.518 C 1390.462 783.307, 1391.529 778.229, 1392.816 761.261 C 1393.807 748.205, 1394.399 747.185, 1402.459 744.645 C 1405.477 743.693, 1408.521 742.101, 1409.223 741.106 C 1409.925 740.112, 1411.925 738.564, 1413.667 737.666 C 1415.772 736.582, 1417.055 735.027, 1417.494 733.029 C 1417.857 731.376, 1418.556 729.774, 1419.048 729.470 C 1419.540 729.166, 1420.872 726.818, 1422.006 724.253 C 1423.708 720.407, 1424.166 716.773, 1424.616 703.544 C 1424.917 694.720, 1425.610 686.314, 1426.156 684.864 C 1426.861 682.991, 1429.082 681.305, 1433.824 679.042 C 1444.988 673.716, 1447.805 671.177, 1452.261 662.425 L 1456.296 654.500 1456.755 609 C 1457.240 560.798, 1456.880 555.259, 1452.815 548.464 C 1448.857 541.847, 1441.330 535.321, 1436.145 534.011 C 1433.053 533.229, 1420.386 532.835, 1398.266 532.833 C 1360.162 532.828, 1358.503 533.094, 1350.715 540.451 C 1346.341 544.582, 1343.052 550.880, 1343.015 555.193 C 1343.007 556.125, 1341.688 557.662, 1340.085 558.609 C 1338.482 559.556, 1336.732 561.294, 1336.195 562.471 C 1335.515 563.964, 1333.352 565.130, 1329.038 566.330 C 1324.102 567.702, 1321.849 569.056, 1317.859 573.046 C 1313.300 577.605, 1312.697 578.766, 1310.996 586.272 C 1309.970 590.797, 1308.644 600.674, 1308.049 608.221 C 1306.843 623.523, 1305.860 625.571, 1298.562 627.980 C 1296.618 628.621, 1294.770 629.563, 1294.455 630.073 C 1294.140 630.583, 1292.965 631, 1291.843 631 C 1290.668 631, 1287.763 633.209, 1284.987 636.212 C 1278.576 643.149, 1276.318 651.645, 1275.433 672.158 C 1274.821 686.350, 1274.717 686.895, 1272.151 689.296 C 1270.693 690.660, 1265.985 692.974, 1261.688 694.438 C 1250.373 698.293, 1249.738 698.676, 1247.003 703.299 C 1241.653 712.343, 1240.254 717.105, 1239.597 728.500 C 1238.584 746.073, 1237.853 753, 1237.014 753 C 1236.174 753, 1234.751 743.899, 1232.948 727 C 1231.038 709.083, 1230.196 706.892, 1221.750 697.870 C 1220.787 696.841, 1219.282 696, 1218.404 696 C 1217.527 696, 1215.614 695.351, 1214.154 694.557 C 1212.694 693.763, 1208.688 691.902, 1205.250 690.420 C 1199.243 687.832, 1198.999 687.586, 1198.979 684.113 C 1198.967 682.126, 1198.546 674.132, 1198.044 666.350 C 1197.191 653.139, 1196.916 651.812, 1193.907 646.350 C 1189.194 637.795, 1184.428 633.183, 1178.505 631.445 C 1175.453 630.549, 1171.841 628.435, 1169.250 626.028 C 1165.125 622.197, 1164.999 621.895, 1164.981 615.790 C 1164.948 605.183, 1162.436 590.614, 1159.610 584.641 C 1158.174 581.607, 1157 578.639, 1157 578.047 C 1157 577.455, 1155.668 576.160, 1154.039 575.170 C 1152.411 574.180, 1150.155 572.196, 1149.027 570.762 C 1147.899 569.327, 1145.620 567.856, 1143.964 567.492 C 1138.592 566.312, 1132 559.151, 1132 554.495 C 1132 551.961, 1124.476 541.545, 1120.198 538.157 C 1118.060 536.464, 1114.280 534.623, 1111.798 534.067 C 1107.230 533.043, 1057.128 531.902, 1047 532.591 M 1039.359 550.445 C 1035.397 552.169, 1035.589 551.566, 1027.537 587.396 C 1027.303 588.438, 1028.403 595.638, 1029.982 603.396 C 1032.221 614.398, 1033.008 621.632, 1033.561 636.285 C 1034.260 654.845, 1034.303 655.118, 1037.117 659.002 C 1039.382 662.129, 1041.108 663.266, 1045.548 664.557 C 1048.619 665.450, 1051.388 666.846, 1051.700 667.660 C 1052.012 668.474, 1053.812 670.121, 1055.699 671.320 C 1058.305 672.976, 1059.807 675.189, 1061.949 680.530 C 1064.458 686.784, 1064.849 689.320, 1065.499 703.530 L 1066.229 719.500 1069.604 723.655 C 1072.241 726.902, 1074.099 728.097, 1078.110 729.125 C 1081.411 729.971, 1083.787 731.272, 1084.770 732.771 C 1085.610 734.053, 1087.580 735.766, 1089.148 736.577 C 1090.717 737.388, 1092 738.559, 1092 739.179 C 1092 739.799, 1093.110 742.654, 1094.467 745.522 C 1096.630 750.095, 1097.036 752.784, 1097.759 767.342 C 1098.564 783.564, 1098.652 784.045, 1101.578 788.223 C 1103.971 791.640, 1105.739 792.902, 1110.369 794.500 C 1113.556 795.600, 1116.599 797.288, 1117.131 798.250 C 1117.664 799.213, 1119.315 800.629, 1120.800 801.398 C 1122.707 802.386, 1124.416 804.955, 1126.618 810.148 C 1129.536 817.027, 1129.774 818.519, 1130.322 833.341 L 1130.908 849.181 1134.393 853.435 C 1137.033 856.657, 1139.207 858.106, 1143.358 859.412 C 1146.372 860.360, 1149.089 861.789, 1149.395 862.587 C 1149.702 863.386, 1151.538 864.975, 1153.476 866.118 C 1155.414 867.262, 1157.014 868.716, 1157.031 869.349 C 1157.049 869.982, 1158.399 873.189, 1160.031 876.475 C 1162.957 882.362, 1163 882.687, 1163 898.725 C 1163 907.676, 1163.353 915, 1163.784 915 C 1164.216 915, 1165.368 916.352, 1166.344 918.005 C 1168.353 921.406, 1171.873 923.510, 1177.237 924.517 C 1179.513 924.944, 1181.511 926.131, 1182.504 927.647 C 1183.384 928.990, 1185.133 930.480, 1186.391 930.958 C 1187.863 931.518, 1189.982 934.470, 1192.348 939.258 C 1194.367 943.344, 1197.746 948.558, 1199.856 950.844 L 1203.693 955 1218.096 955.145 C 1247.396 955.440, 1270.491 954.807, 1270.898 953.698 C 1271.439 952.223, 1275.339 948.388, 1276.796 947.898 C 1277.446 947.679, 1278.465 944.800, 1279.060 941.500 C 1280.951 931.010, 1291.375 918.515, 1300.127 916.247 C 1303.086 915.480, 1303.440 914.940, 1304.566 909.457 C 1305.239 906.181, 1306.937 899.900, 1308.338 895.500 C 1309.740 891.100, 1311.202 884.800, 1311.588 881.500 C 1312.698 872.009, 1317.733 862.628, 1325.288 855.978 C 1327.882 853.694, 1331.229 851.498, 1332.724 851.098 C 1335.046 850.478, 1335.612 849.576, 1336.595 844.936 C 1337.228 841.946, 1338.885 835.900, 1340.276 831.500 C 1341.667 827.100, 1343.506 819.694, 1344.362 815.043 C 1345.316 809.860, 1346.719 805.602, 1347.987 804.043 C 1349.124 802.644, 1350.719 800.048, 1351.531 798.274 C 1352.343 796.500, 1354.243 794.405, 1355.753 793.619 C 1357.264 792.833, 1359.591 791.022, 1360.924 789.595 C 1362.258 788.168, 1364.115 787, 1365.052 787 C 1365.989 787, 1367.188 786.438, 1367.718 785.750 C 1368.973 784.120, 1375.747 757.959, 1376.586 751.500 C 1378.014 740.509, 1389.359 728, 1397.899 728 C 1399.002 728, 1400.240 726.834, 1400.946 725.130 C 1401.600 723.551, 1403.174 721.786, 1404.443 721.208 C 1406.957 720.062, 1407.238 718.272, 1408.560 695 C 1409.194 683.843, 1411.097 675.994, 1413.691 673.842 C 1414.560 673.120, 1416.275 670.940, 1417.502 668.997 C 1419.272 666.193, 1421.100 664.982, 1426.366 663.123 C 1430.015 661.834, 1433 660.358, 1433 659.842 C 1433 659.327, 1434.175 657.815, 1435.611 656.484 C 1438.076 654.200, 1438.298 653.180, 1439.573 638.282 C 1441.104 620.380, 1441.279 606.428, 1440.342 577 L 1439.689 556.500 1435.962 552.750 L 1432.235 549 1400.086 549 C 1375.239 549, 1367.196 549.309, 1364.680 550.360 C 1362.134 551.424, 1360.704 553.221, 1358.113 558.610 C 1350.773 573.881, 1351.958 572.701, 1336.192 580.445 C 1326.778 585.068, 1326.390 586.018, 1325.754 606.016 C 1325.266 621.369, 1325.224 621.605, 1321.712 628.579 C 1319.131 633.704, 1317.056 636.359, 1314.103 638.313 C 1311.870 639.791, 1309.653 641, 1309.176 641 C 1307.032 641, 1295.968 649.168, 1294.693 651.692 C 1293.747 653.565, 1293.053 659.891, 1292.609 670.686 C 1292.066 683.908, 1291.561 687.754, 1289.851 691.686 C 1285.800 701.006, 1284.136 702.445, 1266.699 711.709 C 1260.806 714.840, 1259.344 718.997, 1258.159 736 C 1257.002 752.600, 1254.890 760.677, 1251.286 762.286 C 1250.216 762.763, 1248.609 764.393, 1247.714 765.907 C 1246.492 767.977, 1244.775 768.971, 1240.794 769.915 C 1232.398 771.907, 1227.118 769.091, 1219.978 758.810 L 1215.595 752.500 1214.883 735.705 C 1214.117 717.641, 1213.322 714.833, 1208.448 712.980 C 1207.101 712.468, 1206 711.626, 1206 711.108 C 1206 710.138, 1194.164 704, 1192.292 704 C 1191.715 704, 1190.676 702.633, 1189.984 700.962 C 1189.292 699.291, 1187.927 697.496, 1186.950 696.973 C 1184.144 695.472, 1182.145 688.439, 1180.989 676 C 1179.219 656.963, 1178.976 655.853, 1175.684 651.756 C 1173.998 649.659, 1171.467 647.656, 1170.060 647.306 C 1165.858 646.261, 1157.594 639.385, 1153.781 633.761 C 1151.150 629.881, 1149.915 626.662, 1149.075 621.500 C 1148.134 615.714, 1145.039 603.373, 1141.176 590.003 C 1140.643 588.161, 1138.572 586.612, 1133.268 584.091 C 1127.750 581.468, 1125.853 580.017, 1125.093 577.838 C 1124.549 576.277, 1123.626 575, 1123.041 575 C 1121.594 575, 1117.242 565.424, 1116.458 560.514 C 1115.990 557.589, 1114.735 555.525, 1111.744 552.764 L 1107.667 549 1075.084 549.039 C 1049.798 549.070, 1041.796 549.384, 1039.359 550.445 M 518.500 1446.647 C 516.850 1447.541, 514.150 1448.947, 512.500 1449.772 C 507.751 1452.145, 500.954 1459.120, 498.969 1463.659 C 497.968 1465.946, 496.239 1468.107, 495.126 1468.460 C 494.013 1468.813, 492.837 1469.939, 492.512 1470.961 C 491.441 1474.337, 489.525 1474.911, 474.178 1476.450 C 462.818 1477.589, 458.024 1478.496, 455.235 1480.033 C 444.848 1485.758, 444.021 1486.406, 442.946 1489.664 C 442.340 1491.499, 441.502 1493, 441.083 1493 C 439.598 1493, 437.762 1498.582, 437.300 1504.500 C 437.043 1507.800, 436.423 1512.075, 435.922 1514 C 433.445 1523.520, 436.127 1559.101, 440.559 1575.500 C 441.302 1578.250, 442.181 1582.525, 442.513 1585 C 443.634 1593.372, 444.983 1596.851, 447.914 1598.939 C 449.489 1600.060, 451.035 1602.002, 451.349 1603.253 C 451.808 1605.085, 453.829 1606.202, 461.710 1608.982 C 467.094 1610.881, 472.175 1612.559, 473 1612.711 C 473.825 1612.863, 477.425 1613.432, 481 1613.974 C 485.209 1614.613, 671.244 1614.967, 1008.782 1614.980 C 1456.252 1614.997, 1530.544 1614.799, 1533.454 1613.584 C 1535.319 1612.804, 1537.595 1611.022, 1538.512 1609.623 C 1539.429 1608.223, 1541.080 1606.792, 1542.181 1606.443 C 1545.257 1605.466, 1547.201 1599.602, 1548.627 1587 C 1549.342 1580.675, 1550.135 1574.600, 1550.387 1573.500 C 1550.640 1572.400, 1550.881 1569.512, 1550.923 1567.083 C 1550.966 1564.654, 1551.301 1562.968, 1551.670 1563.336 C 1552.038 1563.705, 1553.384 1562.254, 1554.660 1560.114 C 1556.010 1557.851, 1558.029 1555.959, 1559.485 1555.593 C 1560.862 1555.248, 1561.878 1554.572, 1561.744 1554.091 C 1561.461 1553.078, 1565.783 1549.073, 1567.403 1548.848 C 1568.006 1548.764, 1569.175 1548.651, 1570 1548.598 C 1570.825 1548.544, 1571.633 1547.600, 1571.795 1546.500 C 1571.957 1545.400, 1573.008 1543.375, 1574.132 1542 C 1575.255 1540.625, 1575.883 1540.063, 1575.528 1540.750 C 1575.173 1541.438, 1575.122 1542, 1575.415 1542 C 1576.435 1542, 1578.768 1536.475, 1579.426 1532.500 C 1579.978 1529.163, 1579.666 1527.929, 1577.544 1525.056 C 1576.145 1523.161, 1574.992 1522.036, 1574.983 1522.556 C 1574.974 1523.075, 1574.012 1522.009, 1572.845 1520.187 C 1571.627 1518.285, 1569.078 1516.215, 1566.862 1515.328 C 1564.738 1514.478, 1563 1513.479, 1563 1513.107 C 1563 1512.735, 1561.537 1511.595, 1559.750 1510.574 C 1555.167 1507.955, 1548.274 1500.119, 1547.603 1496.765 C 1547.292 1495.211, 1545.904 1492.889, 1544.519 1491.605 C 1543.134 1490.321, 1542 1488.924, 1542 1488.500 C 1542 1487.023, 1536.883 1483, 1535.005 1483 C 1533.965 1483, 1532.525 1482.182, 1531.807 1481.183 C 1530.390 1479.212, 1525.431 1477.719, 1514.519 1475.976 C 1510.679 1475.363, 1507.079 1474.501, 1506.519 1474.061 C 1505.958 1473.621, 1503.813 1472.717, 1501.750 1472.053 C 1499.688 1471.388, 1498 1470.502, 1498 1470.083 C 1498 1469.664, 1496.853 1468.798, 1495.451 1468.160 C 1494.050 1467.521, 1492.358 1465.702, 1491.692 1464.118 C 1490.228 1460.636, 1481.472 1452.579, 1478 1451.519 C 1476.625 1451.099, 1474.885 1450.262, 1474.134 1449.659 C 1473.382 1449.056, 1471.132 1447.874, 1469.134 1447.032 C 1465.892 1445.667, 1414.564 1445.476, 993.500 1445.261 C 559.286 1445.040, 521.260 1445.151, 518.500 1446.647" stroke="none" fill="#d87a70" fill-rule="evenodd"/><path d="M 306.500 284.056 C 269.953 285.085, 259.108 287.356, 255.599 294.714 C 254.715 296.568, 252.993 303.578, 251.771 310.292 L 249.549 322.500 249.237 738.500 C 249.034 1008.667, 249.274 1159.057, 249.922 1167.500 C 250.470 1174.650, 251.718 1186.469, 252.694 1193.764 C 254.385 1206.396, 254.638 1207.223, 258.016 1211.145 L 261.562 1215.263 280.531 1216.634 C 315.843 1219.185, 422.114 1219.501, 1056 1218.941 C 1720.385 1218.354, 1722.953 1218.336, 1725.500 1214.176 C 1726.050 1213.278, 1727.924 1211.183, 1729.665 1209.521 C 1732.715 1206.610, 1732.888 1205.995, 1734.435 1192.621 C 1735.318 1184.988, 1736.293 1178.335, 1736.601 1177.836 C 1736.910 1177.337, 1737.161 992.783, 1737.161 767.715 C 1737.160 399.259, 1736.995 355.811, 1735.512 331.500 C 1733.323 295.638, 1733.498 296.561, 1727.995 291.953 C 1723.700 288.357, 1722.854 288.086, 1709 285.885 L 1694.500 283.580 1013.500 283.452 C 638.950 283.381, 320.800 283.653, 306.500 284.056 M 838 499.631 C 835.525 499.810, 777.475 500.092, 709 500.257 C 592.925 500.537, 584.233 500.676, 580.554 502.309 C 572.745 505.777, 564.084 516.473, 564.022 522.724 C 564.008 524.146, 562.971 525.481, 561.148 526.423 C 559.580 527.234, 557.545 529.046, 556.625 530.449 C 555.706 531.852, 554.261 533, 553.415 533 C 552.568 533, 549.635 533.733, 546.897 534.628 C 543.369 535.782, 541.497 537.073, 540.470 539.058 C 539.674 540.598, 538.159 542.132, 537.104 542.467 C 536.050 542.802, 534.357 544.971, 533.343 547.288 C 531.695 551.054, 531.465 555.097, 531.174 585.500 C 530.945 609.309, 531.206 621.139, 532.044 624.969 C 533.712 632.590, 538.607 638.104, 547.628 642.527 L 554.756 646.022 575.128 646.555 C 586.333 646.848, 611.925 647.505, 632 648.015 C 671.888 649.029, 685.485 650.241, 686.522 652.876 C 688.833 658.745, 690.814 747.805, 690.917 850.500 C 690.975 907.738, 691.962 937.276, 694.222 949.353 C 695.055 953.808, 696.322 956.435, 699.525 960.353 C 703.593 965.328, 705.127 966.295, 721 973.889 C 723.505 975.088, 725.392 977.235, 727.640 981.444 C 729.366 984.679, 731.676 988.039, 732.773 988.912 C 733.869 989.786, 735.252 991.451, 735.845 992.614 C 736.484 993.866, 739.393 995.651, 742.975 996.991 C 748.356 999.003, 749.504 999.119, 753.368 998.037 C 758.518 996.595, 767.543 988.670, 768.534 984.719 C 769.392 981.300, 776.397 973.312, 779.286 972.457 C 781.520 971.796, 788.636 968.380, 794.898 964.962 C 800.071 962.138, 805.707 952.069, 807.191 943 C 807.686 939.975, 808.463 880.350, 808.918 810.500 C 809.792 676.429, 810.416 657.370, 814.055 653.578 C 815.403 652.173, 818.534 651.309, 825.699 650.364 C 836.055 648.998, 893.168 647.067, 926 646.973 C 944.623 646.920, 945.702 646.809, 950 644.514 C 952.475 643.191, 956.138 641.361, 958.141 640.446 C 960.570 639.336, 962.320 637.570, 963.398 635.141 C 964.287 633.138, 966.128 629.700, 967.490 627.500 L 969.967 623.500 969.984 589.100 L 970 554.700 967.250 549.155 C 963.378 541.349, 957.514 535.495, 952 533.932 C 946.189 532.284, 938.091 526.259, 937.328 523.014 C 937.003 521.631, 935.775 519.150, 934.598 517.500 C 933.422 515.850, 931.874 513.375, 931.159 512 C 929.387 508.593, 921.498 502.902, 917.206 501.934 C 915.272 501.498, 902.623 500.877, 889.095 500.554 C 875.568 500.231, 859.550 499.818, 853.500 499.636 C 847.450 499.454, 840.475 499.451, 838 499.631 M 1047 532.591 C 1036.758 533.288, 1031.083 535.082, 1028.177 538.540 C 1026.704 540.292, 1024.520 542.236, 1023.322 542.860 C 1021.858 543.622, 1020.624 545.880, 1019.560 549.747 C 1018.688 552.911, 1017.333 556.850, 1016.548 558.500 C 1013.023 565.911, 1011 571.015, 1011 572.496 C 1011 573.383, 1009.449 574.750, 1007.536 575.549 C 1005.631 576.345, 1003.593 577.893, 1003.006 578.988 C 1002.420 580.083, 1000.653 581.645, 999.079 582.459 C 997.505 583.273, 995.759 585.252, 995.200 586.856 C 993.812 590.837, 996.216 594.607, 1003.686 600.164 C 1010.615 605.318, 1010.704 605.426, 1012.082 610.410 C 1012.676 612.560, 1013.914 615.463, 1014.832 616.861 C 1016.165 618.893, 1016.623 623.022, 1017.112 637.451 C 1017.750 656.274, 1018.476 661.224, 1021.436 666.903 C 1024.365 672.523, 1032.081 678.417, 1038.770 680.145 C 1045.861 681.976, 1046.852 684.331, 1048.479 703.207 C 1050.446 726.036, 1051.977 731.107, 1058.704 737.064 C 1062.664 740.571, 1070.509 745, 1072.761 745 C 1073.808 745, 1076.018 746.688, 1077.671 748.750 C 1080.647 752.464, 1080.682 752.653, 1081.325 768.349 C 1082.068 786.498, 1084.303 796.254, 1088.613 800.160 C 1090.032 801.447, 1092.086 803.460, 1093.177 804.634 C 1095.242 806.858, 1100.604 809.450, 1105.147 810.421 C 1110.081 811.475, 1111.771 816.263, 1113.020 832.721 C 1114.988 858.666, 1117.673 864.714, 1130.500 872.102 C 1133.250 873.685, 1136.475 874.985, 1137.666 874.991 C 1138.971 874.996, 1141.003 876.490, 1142.779 878.750 C 1145.660 882.417, 1145.741 882.843, 1146.445 898 C 1147.251 915.369, 1148.752 922.675, 1152.532 927.630 C 1155.615 931.673, 1166.167 938.883, 1170.172 939.684 C 1173.586 940.367, 1181 949.134, 1181 952.487 C 1181 956.869, 1187.279 963.340, 1195.451 967.378 L 1203.127 971.172 1235.813 971.718 L 1268.500 972.263 1273.115 969.882 C 1283.898 964.317, 1285.654 963.010, 1288.618 958.348 C 1290.313 955.682, 1292.776 950.800, 1294.090 947.500 C 1295.405 944.200, 1297 941.167, 1297.634 940.760 C 1298.268 940.353, 1300.678 938.440, 1302.988 936.510 C 1305.299 934.579, 1307.992 933, 1308.974 933 C 1311.907 933, 1318.549 925.676, 1321.790 918.869 C 1325.368 911.353, 1325.724 909.660, 1327.417 892.063 C 1328.888 876.772, 1327.739 878.600, 1341.500 869.659 C 1348.992 864.792, 1349.732 863.986, 1353.145 856.987 C 1357.566 847.924, 1358.765 842.691, 1359.562 829 C 1360.406 814.499, 1361.064 812.790, 1367.305 808.901 C 1382.783 799.258, 1382.608 799.417, 1386.459 791.518 C 1390.462 783.307, 1391.529 778.229, 1392.816 761.261 C 1393.807 748.205, 1394.399 747.185, 1402.459 744.645 C 1405.477 743.693, 1408.521 742.101, 1409.223 741.106 C 1409.925 740.112, 1411.925 738.564, 1413.667 737.666 C 1415.772 736.582, 1417.055 735.027, 1417.494 733.029 C 1417.857 731.376, 1418.556 729.774, 1419.048 729.470 C 1419.540 729.166, 1420.872 726.818, 1422.006 724.253 C 1423.708 720.407, 1424.166 716.773, 1424.616 703.544 C 1424.917 694.720, 1425.610 686.314, 1426.156 684.864 C 1426.861 682.991, 1429.082 681.305, 1433.824 679.042 C 1444.988 673.716, 1447.805 671.177, 1452.261 662.425 L 1456.296 654.500 1456.755 609 C 1457.240 560.798, 1456.880 555.259, 1452.815 548.464 C 1448.857 541.847, 1441.330 535.321, 1436.145 534.011 C 1433.053 533.229, 1420.386 532.835, 1398.266 532.833 C 1360.162 532.828, 1358.503 533.094, 1350.715 540.451 C 1346.341 544.582, 1343.052 550.880, 1343.015 555.193 C 1343.007 556.125, 1341.688 557.662, 1340.085 558.609 C 1338.482 559.556, 1336.732 561.294, 1336.195 562.471 C 1335.515 563.964, 1333.352 565.130, 1329.038 566.330 C 1324.102 567.702, 1321.849 569.056, 1317.859 573.046 C 1313.300 577.605, 1312.697 578.766, 1310.996 586.272 C 1309.970 590.797, 1308.644 600.674, 1308.049 608.221 C 1306.843 623.523, 1305.860 625.571, 1298.562 627.980 C 1296.618 628.621, 1294.770 629.563, 1294.455 630.073 C 1294.140 630.583, 1292.965 631, 1291.843 631 C 1290.668 631, 1287.763 633.209, 1284.987 636.212 C 1278.576 643.149, 1276.318 651.645, 1275.433 672.158 C 1274.821 686.350, 1274.717 686.895, 1272.151 689.296 C 1270.693 690.660, 1265.985 692.974, 1261.688 694.438 C 1250.373 698.293, 1249.738 698.676, 1247.003 703.299 C 1241.653 712.343, 1240.254 717.105, 1239.597 728.500 C 1238.584 746.073, 1237.853 753, 1237.014 753 C 1236.174 753, 1234.751 743.899, 1232.948 727 C 1231.038 709.083, 1230.196 706.892, 1221.750 697.870 C 1220.787 696.841, 1219.282 696, 1218.404 696 C 1217.527 696, 1215.614 695.351, 1214.154 694.557 C 1212.694 693.763, 1208.688 691.902, 1205.250 690.420 C 1199.243 687.832, 1198.999 687.586, 1198.979 684.113 C 1198.967 682.126, 1198.546 674.132, 1198.044 666.350 C 1197.191 653.139, 1196.916 651.812, 1193.907 646.350 C 1189.194 637.795, 1184.428 633.183, 1178.505 631.445 C 1175.453 630.549, 1171.841 628.435, 1169.250 626.028 C 1165.125 622.197, 1164.999 621.895, 1164.981 615.790 C 1164.948 605.183, 1162.436 590.614, 1159.610 584.641 C 1158.174 581.607, 1157 578.639, 1157 578.047 C 1157 577.455, 1155.668 576.160, 1154.039 575.170 C 1152.411 574.180, 1150.155 572.196, 1149.027 570.762 C 1147.899 569.327, 1145.620 567.856, 1143.964 567.492 C 1138.592 566.312, 1132 559.151, 1132 554.495 C 1132 551.961, 1124.476 541.545, 1120.198 538.157 C 1118.060 536.464, 1114.280 534.623, 1111.798 534.067 C 1107.230 533.043, 1057.128 531.902, 1047 532.591" stroke="none" fill="#fffffe" fill-rule="evenodd"/></svg>