<svg xmlns="http://www.w3.org/2000/svg" width="1347" height="1920" viewBox="0 0 1347 1920" version="1.1"><path d="M 610.500 115.070 C 595.682 116.558, 583.101 120.398, 576.471 125.454 C 568.013 131.906, 559.627 149.569, 556.983 166.500 C 556.382 170.350, 555.211 174.542, 554.380 175.815 C 553.549 177.088, 549.186 180.524, 544.685 183.450 C 533.841 190.499, 531 193.707, 525.596 205.002 C 521.140 214.316, 520.890 214.611, 512.934 219.982 C 505.891 224.738, 504.167 226.521, 499.882 233.481 C 494.116 242.847, 493.727 244.120, 491.104 262.175 C 488.824 277.864, 486.980 282.313, 480.788 287.057 C 474.112 292.172, 468.081 298.166, 465.754 302 C 461.471 309.057, 450.836 320.915, 445.738 324.317 C 438.083 329.426, 436.825 330.867, 422.500 350.920 C 420.850 353.229, 417.709 356.780, 415.519 358.810 C 403.057 370.363, 398.715 377.310, 395.912 390.178 C 391.499 410.433, 386.191 420.510, 377.225 425.658 C 370.607 429.458, 365.091 434.503, 361 440.498 C 354.868 449.485, 349.729 454.962, 340.783 462.046 C 333.432 467.867, 331.472 470.068, 328.283 476.085 C 322.242 487.481, 317.073 495.012, 310.313 502.265 C 303.002 510.108, 297.778 519.831, 292.376 535.644 C 290.336 541.615, 287.802 547.751, 286.744 549.281 C 285.686 550.810, 280.473 555.709, 275.160 560.167 C 268.464 565.786, 263.607 570.941, 259.329 576.969 C 255.935 581.752, 250.310 588.071, 246.829 591.012 C 236.794 599.490, 226.986 609.246, 225.318 612.410 C 224.474 614.010, 221.795 621.361, 219.366 628.744 C 213.603 646.257, 211.258 650.686, 203.748 658.233 C 196.423 665.594, 192.232 671.254, 188.016 679.478 C 184.368 686.593, 180.481 690.845, 172.844 696.074 C 164.284 701.935, 157.843 708.707, 153.095 716.838 C 150.062 722.031, 147.448 725.094, 144.155 727.317 C 135.904 732.886, 126.565 743.027, 123.243 750.026 C 120.323 756.177, 119.071 762.483, 116.446 784.269 C 115.703 790.440, 113.407 792.881, 103.500 798.032 C 93.764 803.094, 88.812 807.685, 85.976 814.279 C 82.887 821.458, 82.442 828.379, 84.476 837.629 C 86.395 846.358, 87.615 848.315, 98.934 860.829 C 107.401 870.190, 117.018 877.745, 125.276 881.526 C 138.094 887.395, 133.915 887.212, 262.641 887.537 C 392.451 887.865, 385.140 887.502, 388.394 893.795 C 392.225 901.203, 392.923 907.630, 392.321 929.929 C 391.933 944.256, 392.285 961.742, 393.366 982 C 397.046 1050.904, 397.356 1206.902, 394.067 1334.500 C 393.514 1355.950, 392.585 1392.175, 392.002 1415 C 390.158 1487.240, 387.999 1624.337, 388.016 1668.213 C 388.033 1715.946, 388.328 1718.604, 394.630 1727.753 C 398.998 1734.096, 404.941 1738.312, 411.812 1739.943 C 417.534 1741.302, 417.975 1741.312, 514 1742.283 C 599.630 1743.149, 653.401 1742.091, 665 1739.313 C 682.719 1735.068, 687.665 1726.760, 688.107 1700.500 C 688.227 1693.350, 687.762 1647.450, 687.074 1598.500 C 685.539 1489.370, 685.446 1088.467, 686.947 1051.789 C 687.516 1037.880, 688.721 1014.994, 689.624 1000.932 C 691.137 977.375, 691.139 975.093, 689.650 971.932 C 685.295 962.686, 683.654 950.383, 686.153 945.713 C 686.966 944.195, 687.412 928.827, 687.661 893.703 C 687.960 851.686, 687.778 842.934, 686.508 838.030 C 685.535 834.277, 684.994 827.470, 684.984 818.856 C 684.975 810.675, 684.407 803.175, 683.520 799.500 C 681.653 791.768, 681.646 783.907, 683.500 777 C 684.312 773.975, 684.982 768.069, 684.988 763.876 C 684.995 759.682, 685.675 754.338, 686.500 752 C 688.517 746.283, 688.567 723.777, 686.576 717.785 C 685.451 714.398, 685.059 703.336, 684.704 665 C 684.442 636.601, 683.835 615.049, 683.241 613 C 681.249 606.132, 679.783 581.961, 680.906 574.500 C 682.576 563.411, 682.275 509.962, 680.496 501.563 C 679.688 497.748, 678.570 494.170, 678.013 493.613 C 676.323 491.923, 676.758 452.048, 678.500 449 C 680.520 445.467, 680.495 429.473, 678.464 425.579 C 677.223 423.198, 676.938 418.144, 676.923 398.274 C 676.906 375.912, 677.065 373.625, 678.840 370.695 C 681.632 366.085, 683.691 357.746, 684.435 348.033 C 684.833 342.828, 685.645 338.945, 686.542 337.954 C 687.344 337.068, 688 335.907, 688 335.374 C 688 333.199, 695.806 327.184, 700.593 325.671 C 704.991 324.282, 706.542 324.236, 711.944 325.338 C 718.482 326.672, 719.251 327.279, 724.800 335.500 C 727.466 339.450, 727.498 339.692, 727.310 354.745 C 727.171 365.840, 726.724 370.739, 725.666 372.745 C 724.867 374.260, 723.007 378.747, 721.532 382.715 C 719.208 388.968, 718.909 391.033, 719.286 398.215 C 719.526 402.772, 720.475 409.647, 721.396 413.493 C 722.832 419.487, 723.030 425.553, 722.785 455.993 C 722.558 484.271, 722.805 493.129, 724 499.500 C 725.151 505.645, 725.471 514.805, 725.377 539 C 725.310 556.325, 724.923 575.291, 724.518 581.146 C 723.938 589.519, 724.125 593.162, 725.390 598.210 C 726.580 602.951, 727 609.443, 727 623.064 C 727 635.542, 727.479 643.763, 728.483 648.500 C 729.298 652.350, 729.965 658.425, 729.965 662 C 729.965 665.575, 729.298 671.650, 728.483 675.500 C 726.530 684.719, 726.606 694.367, 728.694 702.169 C 731.146 711.336, 731.128 758.499, 728.669 767.831 C 726.729 775.189, 726.338 799.343, 728.066 805.007 C 728.652 806.928, 729.556 817.275, 730.074 828 C 730.974 846.624, 731.411 850.456, 734.065 863 C 735.377 869.204, 734.756 886.881, 733.070 891.315 C 731.425 895.642, 731.738 912.875, 733.559 918.218 C 735.371 923.537, 735.186 945.432, 733.286 950.500 C 732.667 952.150, 731.655 955.525, 731.036 958 C 730.418 960.475, 729.216 964.966, 728.365 967.979 C 726.962 972.947, 726.980 977.379, 728.555 1015.479 C 730.075 1052.240, 730.300 1086.792, 730.354 1291.500 C 730.393 1438.827, 729.964 1551.798, 729.195 1596.500 C 728.524 1635.550, 727.757 1719.170, 727.492 1782.322 C 726.960 1908.792, 726.827 1905.605, 733.034 1915.392 L 735.956 1920 799.322 1920 L 862.687 1920 863.479 1903.750 C 863.915 1894.813, 864.393 1881.200, 864.541 1873.500 C 864.940 1852.842, 865.750 1851.043, 878.518 1842.459 C 888.569 1835.702, 890.958 1832.844, 893.843 1824.125 C 896.641 1815.673, 899.947 1811.572, 906.815 1808.036 C 914.209 1804.228, 921.535 1797.307, 923.950 1791.846 C 925.801 1787.660, 926.868 1781.101, 928.939 1761.199 C 930.213 1748.952, 932.436 1744.936, 941.250 1738.960 C 950.989 1732.356, 953.395 1729.711, 959.208 1719.217 C 965.100 1708.582, 965.964 1707.625, 975 1701.736 C 979.799 1698.609, 982.883 1695.537, 986.786 1690 C 996.327 1676.465, 999.406 1672.683, 1007.105 1665.045 C 1011.287 1660.895, 1016.150 1654.926, 1017.911 1651.779 C 1021.228 1645.853, 1025.351 1630.943, 1026.560 1620.500 C 1026.942 1617.200, 1027.827 1613.375, 1028.527 1612 C 1030.708 1607.714, 1037.756 1600.365, 1042.773 1597.145 C 1047.374 1594.193, 1049.649 1591.713, 1054.833 1584 C 1059.110 1577.635, 1068.381 1568.900, 1076.760 1563.341 C 1083.101 1559.134, 1085.982 1556.424, 1089.161 1551.680 C 1096.298 1541.026, 1103.245 1531.757, 1109.602 1524.406 C 1112.976 1520.504, 1117.360 1513.979, 1119.345 1509.906 C 1122.819 1502.776, 1128 1486.672, 1128 1483.002 C 1128 1479.655, 1136.171 1468.996, 1144.661 1461.266 C 1149.334 1457.013, 1155.406 1450.499, 1158.155 1446.791 C 1161.052 1442.883, 1165.958 1437.998, 1169.826 1435.170 C 1173.497 1432.486, 1179.885 1426.963, 1184.023 1422.895 C 1190.453 1416.573, 1192.467 1413.686, 1197.898 1403 C 1204.323 1390.356, 1211.197 1379.915, 1218.068 1372.364 C 1222.461 1367.536, 1227.340 1358.138, 1229.607 1350.138 C 1232.289 1340.675, 1235.242 1336.652, 1243.617 1331.050 C 1252.695 1324.978, 1258.468 1318.764, 1263.017 1310.166 C 1266.481 1303.619, 1271.493 1298.775, 1278.500 1295.201 C 1283.611 1292.595, 1291.167 1284.752, 1293.971 1279.144 C 1297.027 1273.032, 1298.878 1263.444, 1299.647 1249.750 C 1300.291 1238.283, 1300.387 1237.907, 1303.647 1234.100 C 1305.484 1231.954, 1308.902 1229.063, 1311.243 1227.676 C 1315.966 1224.879, 1324.717 1215.368, 1327.523 1209.983 C 1330.322 1204.611, 1330.868 1199.554, 1329.499 1191.694 C 1327.625 1180.939, 1326.096 1178.207, 1315.346 1166.405 C 1294.975 1144.040, 1292.716 1142.297, 1280.404 1139.442 C 1272.456 1137.598, 1249.131 1137.510, 1132.500 1138.880 C 1047.206 1139.882, 1042.646 1139.679, 1034.867 1134.531 C 1028.433 1130.273, 1028.498 1131.190, 1029.929 1064.200 C 1031.403 995.240, 1031.420 841.946, 1029.970 696 C 1029.400 638.622, 1029.304 568.418, 1029.749 534.500 C 1030.182 501.500, 1030.226 458.975, 1029.847 440 C 1028.146 354.792, 1027.049 318.159, 1026.065 313.779 C 1024.275 305.810, 1020.040 295.651, 1017.328 292.820 C 1015.910 291.341, 1010.907 288.479, 1006.210 286.461 C 999.110 283.411, 995.461 282.545, 984.584 281.331 C 968.432 279.527, 910.284 279.370, 872.500 281.027 C 858.200 281.655, 826.475 282.169, 802 282.170 C 775.498 282.171, 755.882 282.578, 753.500 283.177 C 746.095 285.038, 737.395 289.697, 734.292 293.462 C 732.625 295.484, 730.073 300.168, 728.620 303.871 C 726.850 308.384, 724.532 312.025, 721.592 314.909 L 717.206 319.214 708.853 315.916 C 698.557 311.852, 696.324 310.323, 695.100 306.500 C 692.428 298.152, 691.147 275.123, 689.984 214.500 C 688.698 147.404, 687.797 138.110, 681.569 127.653 C 677.189 120.299, 668.951 116.225, 655.906 114.964 C 644.765 113.886, 621.745 113.940, 610.500 115.070" stroke="none" fill="#e38c81" fill-rule="evenodd"/></svg>